<mxfile host="Electron" modified="2023-05-27T16:50:51.760Z" agent="Mozilla/5.0 (Macintosh; Intel Mac OS X 10_15_7) AppleWebKit/537.36 (KHTML, like Gecko) draw.io/21.2.1 Chrome/112.0.5615.87 Electron/24.1.2 Safari/537.36" etag="6kVZN3cJ0SJ02AtcmUPw" version="21.2.1" type="device">
  <diagram name="Page-1" id="H1nZVYqxkzLZFgEqRADx">
    <mxGraphModel dx="768" dy="3240" grid="1" gridSize="10" guides="1" tooltips="1" connect="1" arrows="1" fold="1" page="1" pageScale="1" pageWidth="850" pageHeight="1100" math="0" shadow="0">
      <root>
        <mxCell id="0" />
        <mxCell id="1" parent="0" />
        <mxCell id="AsBp8XiL8Dx4Y6rQVwFH-4289" value="R, W: 141, H: 131, ORDER: 15, GC: {58, 43, 40, 7, 10, 23, 15, 20, 8, 4, 3, 13, 12, 73, 68} " style="text;html=1;strokeColor=none;fillColor=none;align=center;verticalAlign=middle;whiteSpace=wrap;rounded=0;fontSize=32;" parent="1" vertex="1">
          <mxGeometry x="1510" width="1410" height="30" as="geometry" />
        </mxCell>
        <mxCell id="AsBp8XiL8Dx4Y6rQVwFH-5085" value="R, W: 141, H: 105, ORDER: 16, GC: {49, 42, 50, 7, 16, 11, 8, 56, 3, 55, 5, 9, 17, 4, 13, 30} " style="text;html=1;strokeColor=none;fillColor=none;align=center;verticalAlign=middle;whiteSpace=wrap;rounded=0;fontSize=32;" parent="1" vertex="1">
          <mxGeometry x="1515" y="1390" width="1410" height="30" as="geometry" />
        </mxCell>
        <mxCell id="AsBp8XiL8Dx4Y6rQVwFH-11949" value="R, W: 141, H: 107, ORDER: 19, GC: {52, 34, 26, 29, 23, 3, 32, 18, 16, 1, 10, 12, 17, 8, 2, 46, 55, 15, 40} " style="text;html=1;strokeColor=none;fillColor=none;align=center;verticalAlign=middle;whiteSpace=wrap;rounded=0;fontSize=32;" parent="1" vertex="1">
          <mxGeometry x="1510" y="2530" width="1410" height="30" as="geometry" />
        </mxCell>
        <mxCell id="AsBp8XiL8Dx4Y6rQVwFH-19475" value="R, W: 141, H: 77, ORDER: 20, GC: {32, 20, 17, 31, 3, 14, 12, 11, 18, 23, 13, 5, 28, 1, 46, 22, 2, 26, 24, 45} " style="text;html=1;strokeColor=none;fillColor=none;align=center;verticalAlign=middle;whiteSpace=wrap;rounded=0;fontSize=32;" parent="1" vertex="1">
          <mxGeometry x="1510" y="3690" width="1410" height="30" as="geometry" />
        </mxCell>
        <mxCell id="XSkQVra4LfFsklZXCuDj-1" value="" style="group;flipV=1;" vertex="1" connectable="0" parent="1">
          <mxGeometry x="1510" y="50" width="1410" height="1310" as="geometry" />
        </mxCell>
        <mxCell id="761dnnyQ54j-Cl0NHfQN-4290" value="58" style="rounded=0;whiteSpace=wrap;html=1;fontSize=32;" parent="XSkQVra4LfFsklZXCuDj-1" vertex="1">
          <mxGeometry y="730" width="580" height="580" as="geometry" />
        </mxCell>
        <mxCell id="761dnnyQ54j-Cl0NHfQN-4291" value="43" style="rounded=0;whiteSpace=wrap;html=1;fontSize=32;" parent="XSkQVra4LfFsklZXCuDj-1" vertex="1">
          <mxGeometry x="580" y="880" width="430" height="430" as="geometry" />
        </mxCell>
        <mxCell id="761dnnyQ54j-Cl0NHfQN-4292" value="40" style="rounded=0;whiteSpace=wrap;html=1;fontSize=32;" parent="XSkQVra4LfFsklZXCuDj-1" vertex="1">
          <mxGeometry x="1010" y="910" width="400" height="400" as="geometry" />
        </mxCell>
        <mxCell id="761dnnyQ54j-Cl0NHfQN-4293" value="7" style="rounded=0;whiteSpace=wrap;html=1;fontSize=32;" parent="XSkQVra4LfFsklZXCuDj-1" vertex="1">
          <mxGeometry x="1010" y="840" width="70" height="70" as="geometry" />
        </mxCell>
        <mxCell id="761dnnyQ54j-Cl0NHfQN-4294" value="10" style="rounded=0;whiteSpace=wrap;html=1;fontSize=32;" parent="XSkQVra4LfFsklZXCuDj-1" vertex="1">
          <mxGeometry x="1080" y="810" width="100" height="100" as="geometry" />
        </mxCell>
        <mxCell id="761dnnyQ54j-Cl0NHfQN-4295" value="23" style="rounded=0;whiteSpace=wrap;html=1;fontSize=32;" parent="XSkQVra4LfFsklZXCuDj-1" vertex="1">
          <mxGeometry x="1180" y="680" width="230" height="230" as="geometry" />
        </mxCell>
        <mxCell id="761dnnyQ54j-Cl0NHfQN-4296" value="15" style="rounded=0;whiteSpace=wrap;html=1;fontSize=32;" parent="XSkQVra4LfFsklZXCuDj-1" vertex="1">
          <mxGeometry x="580" y="730" width="150" height="150" as="geometry" />
        </mxCell>
        <mxCell id="761dnnyQ54j-Cl0NHfQN-4297" value="20" style="rounded=0;whiteSpace=wrap;html=1;fontSize=32;" parent="XSkQVra4LfFsklZXCuDj-1" vertex="1">
          <mxGeometry x="730" y="680" width="200" height="200" as="geometry" />
        </mxCell>
        <mxCell id="761dnnyQ54j-Cl0NHfQN-4298" value="8" style="rounded=0;whiteSpace=wrap;html=1;fontSize=32;" parent="XSkQVra4LfFsklZXCuDj-1" vertex="1">
          <mxGeometry x="930" y="800" width="80" height="80" as="geometry" />
        </mxCell>
        <mxCell id="761dnnyQ54j-Cl0NHfQN-4299" value="4" style="rounded=0;whiteSpace=wrap;html=1;fontSize=32;" parent="XSkQVra4LfFsklZXCuDj-1" vertex="1">
          <mxGeometry x="1010" y="800" width="40" height="40" as="geometry" />
        </mxCell>
        <mxCell id="761dnnyQ54j-Cl0NHfQN-4300" value="3" style="rounded=0;whiteSpace=wrap;html=1;fontSize=32;" parent="XSkQVra4LfFsklZXCuDj-1" vertex="1">
          <mxGeometry x="1050" y="810" width="30" height="30" as="geometry" />
        </mxCell>
        <mxCell id="761dnnyQ54j-Cl0NHfQN-4301" value="13" style="rounded=0;whiteSpace=wrap;html=1;fontSize=32;" parent="XSkQVra4LfFsklZXCuDj-1" vertex="1">
          <mxGeometry x="1050" y="680" width="130" height="130" as="geometry" />
        </mxCell>
        <mxCell id="761dnnyQ54j-Cl0NHfQN-4302" value="12" style="rounded=0;whiteSpace=wrap;html=1;fontSize=32;" parent="XSkQVra4LfFsklZXCuDj-1" vertex="1">
          <mxGeometry x="930" y="680" width="120" height="120" as="geometry" />
        </mxCell>
        <mxCell id="761dnnyQ54j-Cl0NHfQN-4303" value="73" style="rounded=0;whiteSpace=wrap;html=1;fontSize=32;" parent="XSkQVra4LfFsklZXCuDj-1" vertex="1">
          <mxGeometry width="730" height="730" as="geometry" />
        </mxCell>
        <mxCell id="761dnnyQ54j-Cl0NHfQN-4304" value="68" style="rounded=0;whiteSpace=wrap;html=1;fontSize=32;" parent="XSkQVra4LfFsklZXCuDj-1" vertex="1">
          <mxGeometry x="730" width="680" height="680" as="geometry" />
        </mxCell>
        <mxCell id="XSkQVra4LfFsklZXCuDj-2" value="" style="group;flipV=1;" vertex="1" connectable="0" parent="1">
          <mxGeometry x="1515" y="1440" width="1410" height="1050" as="geometry" />
        </mxCell>
        <mxCell id="761dnnyQ54j-Cl0NHfQN-5086" value="49" style="rounded=0;whiteSpace=wrap;html=1;fontSize=32;" parent="XSkQVra4LfFsklZXCuDj-2" vertex="1">
          <mxGeometry y="560" width="490" height="490" as="geometry" />
        </mxCell>
        <mxCell id="761dnnyQ54j-Cl0NHfQN-5087" value="42" style="rounded=0;whiteSpace=wrap;html=1;fontSize=32;" parent="XSkQVra4LfFsklZXCuDj-2" vertex="1">
          <mxGeometry x="490" y="630" width="420" height="420" as="geometry" />
        </mxCell>
        <mxCell id="761dnnyQ54j-Cl0NHfQN-5088" value="50" style="rounded=0;whiteSpace=wrap;html=1;fontSize=32;" parent="XSkQVra4LfFsklZXCuDj-2" vertex="1">
          <mxGeometry x="910" y="550" width="500" height="500" as="geometry" />
        </mxCell>
        <mxCell id="761dnnyQ54j-Cl0NHfQN-5089" value="7" style="rounded=0;whiteSpace=wrap;html=1;fontSize=32;" parent="XSkQVra4LfFsklZXCuDj-2" vertex="1">
          <mxGeometry x="490" y="560" width="70" height="70" as="geometry" />
        </mxCell>
        <mxCell id="761dnnyQ54j-Cl0NHfQN-5090" value="16" style="rounded=0;whiteSpace=wrap;html=1;fontSize=32;" parent="XSkQVra4LfFsklZXCuDj-2" vertex="1">
          <mxGeometry x="560" y="470" width="160" height="160" as="geometry" />
        </mxCell>
        <mxCell id="761dnnyQ54j-Cl0NHfQN-5091" value="11" style="rounded=0;whiteSpace=wrap;html=1;fontSize=32;" parent="XSkQVra4LfFsklZXCuDj-2" vertex="1">
          <mxGeometry x="720" y="520" width="110" height="110" as="geometry" />
        </mxCell>
        <mxCell id="761dnnyQ54j-Cl0NHfQN-5092" value="8" style="rounded=0;whiteSpace=wrap;html=1;fontSize=32;" parent="XSkQVra4LfFsklZXCuDj-2" vertex="1">
          <mxGeometry x="830" y="550" width="80" height="80" as="geometry" />
        </mxCell>
        <mxCell id="761dnnyQ54j-Cl0NHfQN-5093" value="56" style="rounded=0;whiteSpace=wrap;html=1;fontSize=32;" parent="XSkQVra4LfFsklZXCuDj-2" vertex="1">
          <mxGeometry width="560" height="560" as="geometry" />
        </mxCell>
        <mxCell id="761dnnyQ54j-Cl0NHfQN-5094" value="3" style="rounded=0;whiteSpace=wrap;html=1;fontSize=32;" parent="XSkQVra4LfFsklZXCuDj-2" vertex="1">
          <mxGeometry x="830" y="520" width="30" height="30" as="geometry" />
        </mxCell>
        <mxCell id="761dnnyQ54j-Cl0NHfQN-5095" value="55" style="rounded=0;whiteSpace=wrap;html=1;fontSize=32;" parent="XSkQVra4LfFsklZXCuDj-2" vertex="1">
          <mxGeometry x="860" width="550" height="550" as="geometry" />
        </mxCell>
        <mxCell id="761dnnyQ54j-Cl0NHfQN-5096" value="5" style="rounded=0;whiteSpace=wrap;html=1;fontSize=32;" parent="XSkQVra4LfFsklZXCuDj-2" vertex="1">
          <mxGeometry x="720" y="470" width="50" height="50" as="geometry" />
        </mxCell>
        <mxCell id="761dnnyQ54j-Cl0NHfQN-5097" value="9" style="rounded=0;whiteSpace=wrap;html=1;fontSize=32;" parent="XSkQVra4LfFsklZXCuDj-2" vertex="1">
          <mxGeometry x="770" y="430" width="90" height="90" as="geometry" />
        </mxCell>
        <mxCell id="761dnnyQ54j-Cl0NHfQN-5098" value="17" style="rounded=0;whiteSpace=wrap;html=1;fontSize=32;" parent="XSkQVra4LfFsklZXCuDj-2" vertex="1">
          <mxGeometry x="560" y="300" width="170" height="170" as="geometry" />
        </mxCell>
        <mxCell id="761dnnyQ54j-Cl0NHfQN-5099" value="4" style="rounded=0;whiteSpace=wrap;html=1;fontSize=32;" parent="XSkQVra4LfFsklZXCuDj-2" vertex="1">
          <mxGeometry x="730" y="430" width="40" height="40" as="geometry" />
        </mxCell>
        <mxCell id="761dnnyQ54j-Cl0NHfQN-5100" value="13" style="rounded=0;whiteSpace=wrap;html=1;fontSize=32;" parent="XSkQVra4LfFsklZXCuDj-2" vertex="1">
          <mxGeometry x="730" y="300" width="130" height="130" as="geometry" />
        </mxCell>
        <mxCell id="761dnnyQ54j-Cl0NHfQN-5101" value="30" style="rounded=0;whiteSpace=wrap;html=1;fontSize=32;" parent="XSkQVra4LfFsklZXCuDj-2" vertex="1">
          <mxGeometry x="560" width="300" height="300" as="geometry" />
        </mxCell>
        <mxCell id="XSkQVra4LfFsklZXCuDj-3" value="" style="group;flipV=1;" vertex="1" connectable="0" parent="1">
          <mxGeometry x="1510" y="2580" width="1410" height="1070" as="geometry" />
        </mxCell>
        <mxCell id="761dnnyQ54j-Cl0NHfQN-11950" value="52" style="rounded=0;whiteSpace=wrap;html=1;fontSize=32;" parent="XSkQVra4LfFsklZXCuDj-3" vertex="1">
          <mxGeometry y="550" width="520" height="520" as="geometry" />
        </mxCell>
        <mxCell id="761dnnyQ54j-Cl0NHfQN-11951" value="34" style="rounded=0;whiteSpace=wrap;html=1;fontSize=32;" parent="XSkQVra4LfFsklZXCuDj-3" vertex="1">
          <mxGeometry x="520" y="730" width="340" height="340" as="geometry" />
        </mxCell>
        <mxCell id="761dnnyQ54j-Cl0NHfQN-11952" value="26" style="rounded=0;whiteSpace=wrap;html=1;fontSize=32;" parent="XSkQVra4LfFsklZXCuDj-3" vertex="1">
          <mxGeometry x="860" y="810" width="260" height="260" as="geometry" />
        </mxCell>
        <mxCell id="761dnnyQ54j-Cl0NHfQN-11953" value="29" style="rounded=0;whiteSpace=wrap;html=1;fontSize=32;" parent="XSkQVra4LfFsklZXCuDj-3" vertex="1">
          <mxGeometry x="1120" y="780" width="290" height="290" as="geometry" />
        </mxCell>
        <mxCell id="761dnnyQ54j-Cl0NHfQN-11954" value="23" style="rounded=0;whiteSpace=wrap;html=1;fontSize=32;" parent="XSkQVra4LfFsklZXCuDj-3" vertex="1">
          <mxGeometry x="860" y="580" width="230" height="230" as="geometry" />
        </mxCell>
        <mxCell id="761dnnyQ54j-Cl0NHfQN-11955" value="3" style="rounded=0;whiteSpace=wrap;html=1;fontSize=32;" parent="XSkQVra4LfFsklZXCuDj-3" vertex="1">
          <mxGeometry x="1090" y="780" width="30" height="30" as="geometry" />
        </mxCell>
        <mxCell id="761dnnyQ54j-Cl0NHfQN-11956" value="32" style="rounded=0;whiteSpace=wrap;html=1;fontSize=32;" parent="XSkQVra4LfFsklZXCuDj-3" vertex="1">
          <mxGeometry x="1090" y="460" width="320" height="320" as="geometry" />
        </mxCell>
        <mxCell id="761dnnyQ54j-Cl0NHfQN-11957" value="18" style="rounded=0;whiteSpace=wrap;html=1;fontSize=32;" parent="XSkQVra4LfFsklZXCuDj-3" vertex="1">
          <mxGeometry x="520" y="550" width="180" height="180" as="geometry" />
        </mxCell>
        <mxCell id="761dnnyQ54j-Cl0NHfQN-11958" value="16" style="rounded=0;whiteSpace=wrap;html=1;fontSize=32;" parent="XSkQVra4LfFsklZXCuDj-3" vertex="1">
          <mxGeometry x="700" y="570" width="160" height="160" as="geometry" />
        </mxCell>
        <mxCell id="761dnnyQ54j-Cl0NHfQN-11959" value="1" style="rounded=0;whiteSpace=wrap;html=1;fontSize=32;" parent="XSkQVra4LfFsklZXCuDj-3" vertex="1">
          <mxGeometry x="860" y="570" width="10" height="10" as="geometry" />
        </mxCell>
        <mxCell id="761dnnyQ54j-Cl0NHfQN-11960" value="10" style="rounded=0;whiteSpace=wrap;html=1;fontSize=32;" parent="XSkQVra4LfFsklZXCuDj-3" vertex="1">
          <mxGeometry x="870" y="480" width="100" height="100" as="geometry" />
        </mxCell>
        <mxCell id="761dnnyQ54j-Cl0NHfQN-11961" value="12" style="rounded=0;whiteSpace=wrap;html=1;fontSize=32;" parent="XSkQVra4LfFsklZXCuDj-3" vertex="1">
          <mxGeometry x="970" y="460" width="120" height="120" as="geometry" />
        </mxCell>
        <mxCell id="761dnnyQ54j-Cl0NHfQN-11962" value="17" style="rounded=0;whiteSpace=wrap;html=1;fontSize=32;" parent="XSkQVra4LfFsklZXCuDj-3" vertex="1">
          <mxGeometry x="700" y="400" width="170" height="170" as="geometry" />
        </mxCell>
        <mxCell id="761dnnyQ54j-Cl0NHfQN-11963" value="8" style="rounded=0;whiteSpace=wrap;html=1;fontSize=32;" parent="XSkQVra4LfFsklZXCuDj-3" vertex="1">
          <mxGeometry x="870" y="400" width="80" height="80" as="geometry" />
        </mxCell>
        <mxCell id="761dnnyQ54j-Cl0NHfQN-11964" value="2" style="rounded=0;whiteSpace=wrap;html=1;fontSize=32;" parent="XSkQVra4LfFsklZXCuDj-3" vertex="1">
          <mxGeometry x="950" y="460" width="20" height="20" as="geometry" />
        </mxCell>
        <mxCell id="761dnnyQ54j-Cl0NHfQN-11965" value="46" style="rounded=0;whiteSpace=wrap;html=1;fontSize=32;" parent="XSkQVra4LfFsklZXCuDj-3" vertex="1">
          <mxGeometry x="950" width="460" height="460" as="geometry" />
        </mxCell>
        <mxCell id="761dnnyQ54j-Cl0NHfQN-11966" value="55" style="rounded=0;whiteSpace=wrap;html=1;fontSize=32;" parent="XSkQVra4LfFsklZXCuDj-3" vertex="1">
          <mxGeometry width="550" height="550" as="geometry" />
        </mxCell>
        <mxCell id="761dnnyQ54j-Cl0NHfQN-11967" value="15" style="rounded=0;whiteSpace=wrap;html=1;fontSize=32;" parent="XSkQVra4LfFsklZXCuDj-3" vertex="1">
          <mxGeometry x="550" y="400" width="150" height="150" as="geometry" />
        </mxCell>
        <mxCell id="761dnnyQ54j-Cl0NHfQN-11968" value="40" style="rounded=0;whiteSpace=wrap;html=1;fontSize=32;" parent="XSkQVra4LfFsklZXCuDj-3" vertex="1">
          <mxGeometry x="550" width="400" height="400" as="geometry" />
        </mxCell>
        <mxCell id="XSkQVra4LfFsklZXCuDj-4" value="" style="group;flipV=1;" vertex="1" connectable="0" parent="1">
          <mxGeometry x="1510" y="3740" width="1410" height="770" as="geometry" />
        </mxCell>
        <mxCell id="761dnnyQ54j-Cl0NHfQN-19476" value="32" style="rounded=0;whiteSpace=wrap;html=1;fontSize=32;" parent="XSkQVra4LfFsklZXCuDj-4" vertex="1">
          <mxGeometry y="450" width="320" height="320" as="geometry" />
        </mxCell>
        <mxCell id="761dnnyQ54j-Cl0NHfQN-19477" value="20" style="rounded=0;whiteSpace=wrap;html=1;fontSize=32;" parent="XSkQVra4LfFsklZXCuDj-4" vertex="1">
          <mxGeometry x="320" y="570" width="200" height="200" as="geometry" />
        </mxCell>
        <mxCell id="761dnnyQ54j-Cl0NHfQN-19478" value="17" style="rounded=0;whiteSpace=wrap;html=1;fontSize=32;" parent="XSkQVra4LfFsklZXCuDj-4" vertex="1">
          <mxGeometry x="520" y="600" width="170" height="170" as="geometry" />
        </mxCell>
        <mxCell id="761dnnyQ54j-Cl0NHfQN-19479" value="31" style="rounded=0;whiteSpace=wrap;html=1;fontSize=32;" parent="XSkQVra4LfFsklZXCuDj-4" vertex="1">
          <mxGeometry x="690" y="460" width="310" height="310" as="geometry" />
        </mxCell>
        <mxCell id="761dnnyQ54j-Cl0NHfQN-19480" value="3" style="rounded=0;whiteSpace=wrap;html=1;fontSize=32;" parent="XSkQVra4LfFsklZXCuDj-4" vertex="1">
          <mxGeometry x="520" y="570" width="30" height="30" as="geometry" />
        </mxCell>
        <mxCell id="761dnnyQ54j-Cl0NHfQN-19481" value="14" style="rounded=0;whiteSpace=wrap;html=1;fontSize=32;" parent="XSkQVra4LfFsklZXCuDj-4" vertex="1">
          <mxGeometry x="550" y="460" width="140" height="140" as="geometry" />
        </mxCell>
        <mxCell id="761dnnyQ54j-Cl0NHfQN-19482" value="12" style="rounded=0;whiteSpace=wrap;html=1;fontSize=32;" parent="XSkQVra4LfFsklZXCuDj-4" vertex="1">
          <mxGeometry x="320" y="450" width="120" height="120" as="geometry" />
        </mxCell>
        <mxCell id="761dnnyQ54j-Cl0NHfQN-19483" value="11" style="rounded=0;whiteSpace=wrap;html=1;fontSize=32;" parent="XSkQVra4LfFsklZXCuDj-4" vertex="1">
          <mxGeometry x="440" y="460" width="110" height="110" as="geometry" />
        </mxCell>
        <mxCell id="761dnnyQ54j-Cl0NHfQN-19484" value="18" style="rounded=0;whiteSpace=wrap;html=1;fontSize=32;" parent="XSkQVra4LfFsklZXCuDj-4" vertex="1">
          <mxGeometry x="1000" y="590" width="180" height="180" as="geometry" />
        </mxCell>
        <mxCell id="761dnnyQ54j-Cl0NHfQN-19485" value="23" style="rounded=0;whiteSpace=wrap;html=1;fontSize=32;" parent="XSkQVra4LfFsklZXCuDj-4" vertex="1">
          <mxGeometry x="1180" y="540" width="230" height="230" as="geometry" />
        </mxCell>
        <mxCell id="761dnnyQ54j-Cl0NHfQN-19486" value="13" style="rounded=0;whiteSpace=wrap;html=1;fontSize=32;" parent="XSkQVra4LfFsklZXCuDj-4" vertex="1">
          <mxGeometry x="1000" y="460" width="130" height="130" as="geometry" />
        </mxCell>
        <mxCell id="761dnnyQ54j-Cl0NHfQN-19487" value="5" style="rounded=0;whiteSpace=wrap;html=1;fontSize=32;" parent="XSkQVra4LfFsklZXCuDj-4" vertex="1">
          <mxGeometry x="1130" y="540" width="50" height="50" as="geometry" />
        </mxCell>
        <mxCell id="761dnnyQ54j-Cl0NHfQN-19488" value="28" style="rounded=0;whiteSpace=wrap;html=1;fontSize=32;" parent="XSkQVra4LfFsklZXCuDj-4" vertex="1">
          <mxGeometry x="1130" y="260" width="280" height="280" as="geometry" />
        </mxCell>
        <mxCell id="761dnnyQ54j-Cl0NHfQN-19489" value="1" style="rounded=0;whiteSpace=wrap;html=1;fontSize=32;" parent="XSkQVra4LfFsklZXCuDj-4" vertex="1">
          <mxGeometry x="440" y="450" width="10" height="10" as="geometry" />
        </mxCell>
        <mxCell id="761dnnyQ54j-Cl0NHfQN-19490" value="46" style="rounded=0;whiteSpace=wrap;html=1;fontSize=32;" parent="XSkQVra4LfFsklZXCuDj-4" vertex="1">
          <mxGeometry x="450" width="460" height="460" as="geometry" />
        </mxCell>
        <mxCell id="761dnnyQ54j-Cl0NHfQN-19491" value="22" style="rounded=0;whiteSpace=wrap;html=1;fontSize=32;" parent="XSkQVra4LfFsklZXCuDj-4" vertex="1">
          <mxGeometry x="910" y="240" width="220" height="220" as="geometry" />
        </mxCell>
        <mxCell id="761dnnyQ54j-Cl0NHfQN-19492" value="2" style="rounded=0;whiteSpace=wrap;html=1;fontSize=32;" parent="XSkQVra4LfFsklZXCuDj-4" vertex="1">
          <mxGeometry x="1130" y="240" width="20" height="20" as="geometry" />
        </mxCell>
        <mxCell id="761dnnyQ54j-Cl0NHfQN-19493" value="26" style="rounded=0;whiteSpace=wrap;html=1;fontSize=32;" parent="XSkQVra4LfFsklZXCuDj-4" vertex="1">
          <mxGeometry x="1150" width="260" height="260" as="geometry" />
        </mxCell>
        <mxCell id="761dnnyQ54j-Cl0NHfQN-19494" value="24" style="rounded=0;whiteSpace=wrap;html=1;fontSize=32;" parent="XSkQVra4LfFsklZXCuDj-4" vertex="1">
          <mxGeometry x="910" width="240" height="240" as="geometry" />
        </mxCell>
        <mxCell id="761dnnyQ54j-Cl0NHfQN-19495" value="45" style="rounded=0;whiteSpace=wrap;html=1;fontSize=32;" parent="XSkQVra4LfFsklZXCuDj-4" vertex="1">
          <mxGeometry width="450" height="450" as="geometry" />
        </mxCell>
      </root>
    </mxGraphModel>
  </diagram>
</mxfile>
